<svg xmlns="http://www.w3.org/2000/svg" viewBox="0 0 1083.7 1083.7"><path d="M890.7 639.9a65 65 0 0 1 84.9 31.4 65 65 0 0 1-28.9 85.8 65 65 0 0 1-86.6-26.3"/><path d="M816.7 812.1a65 65 0 0 1 53 73.5 65 65 0 0 1-71.8 55.1 65 65 0 0 1-57.3-70" fill="#f1dc00"/><path d="M650 925.1a65 65 0 0 1 21.2 88 65 65 0 0 1-87.3 24 65 65 0 0 1-26.6-86.6" fill="#00ce88"/><path d="M103.2 443.9a65 65 0 0 1-84.9-31.5 65 65 0 0 1 28.9-85.8 65 65 0 0 1 86.6 26.3" fill="#bbac14"/><path d="M177.2 271.6a65 65 0 0 1-53-73.4 65 65 0 0 1 71.9-55.2 65 65 0 0 1 57.3 70.1" fill="#7700b3"/><path d="M891.7 587c-10.3 101.5-64.4 187.1-144 255.5-142 122.1-385.5 121.4-512.8-16.2A390 390 0 0 0 910.5 587z" fill="#444"/><path d="M344 158.6a65 65 0 0 1-21.3-88 65 65 0 0 1 87.3-24 65 65 0 0 1 26.6 86.6" fill="#b56f29"/><path d="M479.8 124.8a390 390 0 0 0-254 94.3A390 390 0 0 0 175 758c-76-137.5-83-257-44.4-357.2a148.6 148.6 0 0 1 17-79.2h-.1a179.1 179.1 0 0 1 47.6-56c18-14.3 38-25.4 60.3-33.6C385 122.5 597 113.8 729.6 216.4h1.5a390 390 0 0 0-251.3-91.6zm262 101.6c8.6 7.3 16.8 15.2 24.5 23.6a390 390 0 0 0-23.8-23.6h-.7zm-510.2 27.3a199.2 199.2 0 0 0-30.2 19.9c-19 15-34 32.5-45 52.8a136.5 136.5 0 0 0-15.2 50 421.6 421.6 0 0 1 90.4-122.7z" fill="#444"/><g stroke-width="8.1"><path style="line-height:1000%;-inkscape-font-specification:'Steppes TT'" d="M287 156.9c-20.9 0-41.5 3.3-61.8 10a170.4 170.4 0 0 0-54 28.8 141.7 141.7 0 0 0-37.7 44.3c-9 17-13.6 35.6-13.6 55.5 0 15.3 4 31.4 11.8 48.5 7.8 17.1 17 33 27.7 48a617.3 617.3 0 0 0 30.8 38.6 743.2 743.2 0 0 0 23.9 25l214.5-230.4s-7.5-12-17.7-20.8c-10-9-21.8-16.9-35-23.7-12.8-7-27.1-12.8-43-17.2-15.7-4.4-31-6.6-45.9-6.6zM529.3 156.3v442l233.8-442Z" font-weight="400" font-family="Steppes TT" letter-spacing="0" word-spacing="0" fill="#b56f29" transform="translate(-12 29.4) scale(1.22776)"/><path style="line-height:1000%;-inkscape-font-specification:'Steppes TT'" d="M372.5 301.3s3 2.9 14.3 12.7a464.5 464.5 0 0 1 35.6 34.4c12.2 13 23.2 28 32.8 44.6a94.5 94.5 0 0 1 14.8 48c0 22.3-4.6 43.2-13.9 62.7-9 19.3-21.7 36-38 50.3-16.2 14.1-35 25-56 32.9a189.1 189.1 0 0 1-64.8 11.5c-23 0-44.9-3-65.8-9a265.5 265.5 0 0 1-57-24.2c-17-9.9-44-31.7-44-31.7z" font-weight="400" font-family="Steppes TT" letter-spacing="0" word-spacing="0" fill="#444" transform="translate(-12 29.4) scale(1.22776)"/><path d="M924.5 221.4 653.3 764h146l42-182.2h81s144.8 7.3 147-171.7c2.1-179-144.8-188.8-144.8-188.8Z" fill="#444" fill-rule="evenodd"/></g></svg>